<svg width="1918" height="569" viewBox="0 0 1918 569" fill="none" xmlns="http://www.w3.org/2000/svg">
<mask id="mask0_230_77" style="mask-type:alpha" maskUnits="userSpaceOnUse" x="-5" y="0" width="1925" height="569">
<rect x="-5" width="1925" height="569" fill="#D9D9D9"></rect>
</mask>
<g mask="url(#mask0_230_77)">

<path d="M-298.622 -143.227H-297.622V900.773H-298.622V-143.227Z" fill="#0038FF" fill-opacity="0.3" data-index="1" style="visibility: hidden;"></path>

<path d="M109.32 -143.227H110.32V900.773H109.32V-143.227Z" fill="#0038FF" fill-opacity="0.3" data-index="3"></path>
<path d="M313.29 -143.227H314.29V900.773H313.29V-143.227Z" fill="#0038FF" fill-opacity="0.3" data-index="4"></path>
<path d="M517.261 -143.227H518.261V900.773H517.261V-143.227Z" fill="#0038FF" fill-opacity="0.3" data-index="5"></path>
<path d="M721.232 -143.227H722.232V900.773H721.232V-143.227Z" fill="#0038FF" fill-opacity="0.3" data-index="6"></path>

<path d="M1129.17 -143.227H1130.17V900.773H1129.17V-143.227Z" fill="#0038FF" fill-opacity="0.3" data-index="8" style="visibility: hidden;"></path>

<path d="M1537.12 -143.227H1538.12V900.773H1537.12V-143.227Z" fill="#0038FF" fill-opacity="0.3" data-index="10" style="visibility: hidden;"></path>

<path d="M1945.06 -143.227H1946.06V900.773H1945.06V-143.227Z" fill="#0038FF" fill-opacity="0.3" data-index="12" style="visibility: hidden;"></path>

<path d="M2353 -143.227H2354V900.773H2353V-143.227Z" fill="#0038FF" fill-opacity="0.3" data-index="14" style="visibility: hidden;"></path>

<path d="M1886.61 136.754V137.754L-33.3874 137.754V136.754L1886.61 136.754Z" fill="#0038FF" fill-opacity="0.3" data-index="16"></path>
<path d="M1886.61 280.637V281.637L-33.3874 281.637V280.637L1886.61 280.637Z" fill="#0038FF" fill-opacity="0.3" data-index="17"></path>

<path d="M1886.61 568.403V569.403L-33.3874 569.403V568.403L1886.61 568.403Z" fill="#0038FF" fill-opacity="0.3" data-index="19" style="visibility: hidden;"></path>

<path d="M-5 -1.52588e-05H1920V586H-5V-1.52588e-05Z" fill="url(#paint1_linear_230_77)" data-index="21" style="visibility: hidden;"></path>

<path d="M-5 -1.52588e-05H1920V586H-5V-1.52588e-05Z" fill="url(#paint3_linear_230_77)" data-index="23" style="visibility: hidden;"></path>
<g opacity="0.6">
<rect x="-6.10352e-05" y="-0.290878" width="1920" height="586" fill="url(#paint4_linear_230_77)"></rect>
<rect x="-6.10352e-05" y="-0.290878" width="1920" height="586" fill="url(#paint5_radial_230_77)" fill-opacity="0.4"></rect>
<rect x="-6.10352e-05" y="-0.290878" width="1920" height="586" fill="url(#paint6_radial_230_77)" fill-opacity="0.1"></rect>
<rect x="-6.10352e-05" y="-0.290878" width="1920" height="586" fill="url(#paint7_radial_230_77)"></rect>
<rect x="-6.10352e-05" y="-0.290878" width="1920" height="586" fill="url(#paint8_radial_230_77)" fill-opacity="0.04"></rect>
<rect x="-6.10352e-05" y="-0.290878" width="1920" height="586" fill="url(#paint9_linear_230_77)"></rect>
</g>
</g>
<defs>
<linearGradient id="paint0_linear_230_77" x1="741" y1="417.349" x2="739.986" y2="599.089" gradientUnits="userSpaceOnUse">
<stop stop-color="white" stop-opacity="0"></stop>
<stop offset="1" stop-color="white"></stop>
</linearGradient>
<linearGradient id="paint1_linear_230_77" x1="141" y1="64.4399" x2="146.069" y2="-30.2025" gradientUnits="userSpaceOnUse">
<stop stop-color="white" stop-opacity="0"></stop>
<stop offset="1" stop-color="white"></stop>
</linearGradient>
<linearGradient id="paint2_linear_230_77" x1="667.5" y1="400.735" x2="402.032" y2="182.52" gradientUnits="userSpaceOnUse">
<stop stop-color="white" stop-opacity="0"></stop>
<stop offset="0.977343" stop-color="white"></stop>
</linearGradient>
<linearGradient id="paint3_linear_230_77" x1="1269" y1="349.385" x2="1556.41" y2="192.464" gradientUnits="userSpaceOnUse">
<stop stop-color="white" stop-opacity="0"></stop>
<stop offset="1" stop-color="white"></stop>
</linearGradient>
<linearGradient id="paint4_linear_230_77" x1="1828.5" y1="915" x2="1587.5" y2="198" gradientUnits="userSpaceOnUse">
<stop stop-color="white"></stop>
<stop offset="0.829283" stop-color="#B0D0FF" stop-opacity="0"></stop>
</linearGradient>
<radialGradient id="paint5_radial_230_77" cx="0" cy="0" r="1" gradientUnits="userSpaceOnUse" gradientTransform="translate(1920 475) rotate(-151.086) scale(218.2 714.922)">
<stop offset="0.10217" stop-color="#00FFC2"></stop>
<stop offset="1" stop-color="#EAEFFE"></stop>
</radialGradient>
<radialGradient id="paint6_radial_230_77" cx="0" cy="0" r="1" gradientUnits="userSpaceOnUse" gradientTransform="translate(100.5 639) rotate(-63.6082) scale(295.833 969.283)">
<stop offset="0.10217" stop-color="#00FFC2"></stop>
<stop offset="1" stop-color="#EAEFFE"></stop>
</radialGradient>
<radialGradient id="paint7_radial_230_77" cx="0" cy="0" r="1" gradientUnits="userSpaceOnUse" gradientTransform="translate(1824.5 138) rotate(167.382) scale(244.915 802.451)">
<stop stop-color="#FC7FFF"></stop>
<stop offset="1" stop-color="white" stop-opacity="0"></stop>
</radialGradient>
<radialGradient id="paint8_radial_230_77" cx="0" cy="0" r="1" gradientUnits="userSpaceOnUse" gradientTransform="translate(151 -20) rotate(65.1916) scale(240.714 788.688)">
<stop offset="0.00671749" stop-color="#FF00D6"></stop>
<stop offset="1" stop-color="#F509FA" stop-opacity="0"></stop>
</radialGradient>
<linearGradient id="paint9_linear_230_77" x1="728.5" y1="-1.60232e-06" x2="732" y2="431.5" gradientUnits="userSpaceOnUse">
<stop stop-color="white"></stop>
<stop offset="1" stop-color="white" stop-opacity="0"></stop>
</linearGradient>
</defs>
</svg>